<?xml version="1.0" standalone="no"?>
<!DOCTYPE svg PUBLIC "-//W3C//DTD SVG 20010904//EN"
 "http://www.w3.org/TR/2001/REC-SVG-20010904/DTD/svg10.dtd">
<svg version="1.0" xmlns="http://www.w3.org/2000/svg"
 width="421.000000pt" height="421.000000pt" viewBox="0 0 421.000000 421.000000"
 preserveAspectRatio="xMidYMid meet">
<metadata>
Created by potrace 1.11, written by Peter Selinger 2001-2013
</metadata>
<g transform="translate(0.000000,421.000000) scale(0.100000,-0.100000)"
fill="#000000" stroke="none">
<path d="M0 2686 c1 -1177 4 -1526 13 -1530 9 -3 9 -5 0 -5 -10 -1 -13 -123
-13 -576 l0 -575 106 0 c90 0 109 3 120 17 8 12 9 22 2 30 -7 8 -5 19 6 35 23
32 20 39 -10 27 -34 -12 -44 -3 -18 16 14 11 15 14 2 9 -11 -4 -16 0 -15 13 1
11 -4 18 -16 17 -9 -1 -17 2 -17 7 0 5 6 9 13 10 6 0 -4 5 -23 11 -22 7 -29
13 -20 16 8 3 18 10 22 15 4 7 12 6 22 -2 21 -18 36 -5 36 32 l1 32 25 -28
c14 -17 31 -27 39 -23 18 6 18 5 5 -28 -7 -20 -6 -24 5 -19 22 8 18 -10 -5
-27 -42 -30 -6 -58 49 -37 23 9 32 8 45 -6 10 -9 24 -13 34 -10 16 6 16 5 -1
-11 -15 -15 -20 -16 -34 -4 -13 10 -17 10 -20 1 -3 -7 -11 -13 -20 -13 -8 0
-13 -6 -10 -12 2 -7 -2 -21 -10 -30 -22 -25 -7 -38 42 -38 29 0 45 5 49 15 3
8 12 15 21 15 17 0 20 21 5 36 -8 8 -7 14 3 23 12 9 15 5 20 -25 9 -52 23 -64
76 -63 25 0 40 3 34 6 -8 3 -11 14 -7 29 5 21 3 24 -20 24 -16 0 -26 -6 -26
-15 0 -18 -19 -20 -24 -2 -16 48 -16 66 -1 61 8 -4 15 -1 15 6 0 7 8 9 20 5
12 -4 26 0 37 10 10 11 24 14 37 10 12 -4 27 -7 34 -7 6 -1 12 -7 12 -15 0
-11 -6 -11 -36 2 -33 13 -35 13 -32 -3 2 -9 13 -18 26 -20 12 -2 22 -9 22 -15
0 -7 3 -23 7 -36 5 -20 3 -23 -10 -18 -8 3 -21 0 -27 -8 -9 -11 -3 -13 37 -12
41 2 48 5 48 22 0 14 -6 19 -17 17 -10 -2 -18 1 -18 7 0 5 -3 17 -7 27 -4 12
-3 15 5 10 7 -4 12 -2 12 3 0 18 38 13 49 -6 8 -14 12 -15 25 -4 14 12 16 12
10 -3 -3 -9 -2 -16 3 -16 6 0 9 -13 8 -30 l-2 -30 968 0 c998 0 1019 1 1019
39 0 9 29 47 65 85 67 70 72 80 55 91 -12 7 1 22 43 49 18 12 27 14 27 6 0 -6
-9 -14 -20 -17 -27 -7 -15 -23 18 -23 21 0 24 -2 12 -10 -8 -5 -10 -10 -4 -10
13 0 11 -79 -3 -105 -6 -11 -9 -35 -7 -52 2 -18 -1 -33 -6 -33 -6 0 -10 -4
-10 -10 0 -7 225 -10 655 -10 l656 0 -2 121 c-1 113 -3 122 -25 144 -31 31
-31 47 1 39 l25 -6 0 682 c0 398 -4 679 -9 676 -5 -3 -12 1 -15 10 -3 8 -10
12 -16 9 -6 -4 -10 8 -10 29 0 20 5 36 10 36 6 0 10 -11 10 -25 0 -16 6 -25
15 -25 12 0 15 14 14 73 -1 39 -4 62 -6 50 -2 -13 -11 -23 -20 -23 -12 0 -14
7 -9 31 3 17 6 39 6 48 1 14 2 14 14 -2 11 -15 14 -5 15 73 1 75 -1 88 -14 84
-9 -4 -15 0 -15 10 0 9 7 16 15 16 10 0 15 10 15 33 -1 30 -1 31 -15 13 -18
-24 -26 -18 -18 12 3 12 12 22 19 22 10 0 14 15 14 55 0 58 -5 64 -36 40 -24
-18 -34 -19 -34 -1 0 7 9 16 20 19 29 7 35 34 15 57 -15 16 -15 20 -3 20 15 0
45 46 36 55 -3 3 -17 -6 -32 -20 -15 -14 -31 -25 -35 -25 -21 0 -35 35 -33 83
1 28 -1 47 -5 43 -5 -4 -8 -11 -9 -14 0 -4 -4 -22 -8 -39 -7 -32 -8 -33 -31
-15 -14 10 -22 24 -19 33 2 9 -3 22 -11 29 -13 11 -14 10 -9 -5 5 -12 3 -16
-6 -13 -7 2 -14 16 -14 30 -1 21 2 25 14 18 13 -7 16 0 17 45 1 47 -1 54 -20
59 -16 4 -19 8 -11 16 16 16 66 1 71 -21 5 -17 24 -30 53 -34 8 -1 32 -6 53
-10 l37 -7 0 116 c0 75 -4 116 -11 116 -5 0 -7 5 -4 10 3 6 -1 10 -10 10 -8 0
-19 10 -24 23 -12 30 5 60 30 54 17 -5 19 1 19 47 0 40 -5 57 -20 71 -21 19
-27 60 -10 70 6 4 8 11 5 16 -4 5 -2 9 3 9 5 0 7 14 4 30 -5 35 -9 36 -34 13
-16 -14 -18 -14 -18 0 0 8 -5 17 -12 19 -6 2 -12 25 -12 50 -1 35 -5 48 -18
51 -24 7 -34 -29 -13 -49 9 -9 14 -18 12 -20 -8 -8 -67 28 -67 40 0 7 -11 23
-25 36 -14 13 -25 29 -25 37 0 7 -4 13 -10 13 -5 0 -10 8 -11 18 0 13 -2 12
-9 -5 -18 -45 -26 -21 -26 77 1 55 4 100 9 100 4 0 7 7 7 15 0 17 -16 20 -25
5 -7 -11 -25 -4 -25 8 0 4 10 12 22 17 12 6 25 21 28 35 l6 25 8 -29 c5 -21
12 -27 26 -23 24 6 61 -19 54 -37 -5 -12 49 -25 126 -30 14 -1 31 -5 38 -9 8
-6 12 -2 12 13 0 12 -4 19 -9 15 -5 -3 -12 -1 -16 5 -3 5 -17 10 -30 10 -26 0
-85 50 -85 74 0 19 33 38 54 30 10 -4 16 -1 16 9 0 25 -25 26 -48 2 -26 -27
-81 -36 -139 -23 l-41 10 24 35 c21 32 33 93 18 93 -9 0 -34 -28 -34 -39 0 -6
-9 -15 -19 -21 -13 -6 -17 -17 -14 -30 7 -27 -12 -25 -31 2 -20 28 -21 44 -2
28 12 -9 18 -3 36 37 35 79 37 86 46 128 l9 40 48 -3 47 -3 0 34 c0 22 -6 37
-16 41 -8 3 -12 10 -9 16 3 5 0 10 -8 10 -20 0 -10 44 14 66 26 23 36 10 21
-28 -7 -20 -8 -36 -3 -41 11 -11 27 76 17 92 -4 5 -2 12 4 16 5 3 10 23 10 43
0 20 7 46 15 56 20 27 19 36 -6 36 -11 0 -18 -4 -15 -8 3 -5 -3 -16 -12 -25
-9 -8 -23 -23 -30 -31 -6 -8 -18 -13 -26 -10 -18 7 -30 -94 -17 -144 17 -68
21 -102 11 -102 -5 0 -13 26 -19 58 -6 31 -18 88 -26 126 -14 64 -14 69 2 81
22 16 12 29 -15 21 -17 -6 -20 -14 -17 -59 1 -29 8 -64 15 -80 10 -20 10 -31
2 -39 -18 -18 -42 -1 -42 32 0 16 -5 30 -11 30 -7 0 -10 12 -7 30 5 36 -1 38
-31 7 -18 -20 -19 -26 -8 -35 8 -7 16 -10 18 -8 2 2 5 -25 6 -60 1 -36 -2 -64
-7 -64 -10 0 -14 20 -11 53 3 21 2 21 -39 4 -17 -8 -30 -18 -29 -23 1 -5 -5
-11 -15 -12 -15 -3 -16 -1 -6 17 6 12 19 21 29 21 14 0 20 9 23 35 5 40 3 41
-20 19 -10 -11 -17 -13 -20 -5 -2 6 -11 11 -19 11 -12 0 -14 9 -11 38 3 20 8
46 13 57 l8 20 -16 -20 c-9 -11 -17 -32 -17 -47 0 -24 -18 -41 -21 -20 -7 36
-4 71 7 93 12 25 12 27 -9 33 -12 3 -44 6 -71 6 -41 0 -47 -3 -42 -16 4 -9 4
-26 0 -37 -5 -16 -8 -17 -15 -6 -5 8 -9 24 -9 37 0 15 -6 22 -21 22 -11 0 -18
-4 -14 -9 8 -14 -16 -61 -32 -61 -7 0 -16 6 -19 14 -3 8 -12 12 -20 9 -7 -3
-33 6 -57 20 -34 20 -57 25 -110 26 -47 0 -66 -3 -64 -12 1 -7 -8 -11 -23 -11
-49 3 -101 11 -106 17 -4 3 -298 6 -655 7 l-648 1 -7 -26 c-3 -14 -10 -25 -15
-25 -5 0 -9 -4 -9 -10 0 -5 7 -7 15 -4 10 4 15 0 15 -11 0 -13 4 -15 13 -8 14
12 50 13 57 2 7 -10 91 -13 115 -4 11 4 30 17 43 28 19 18 22 18 22 4 0 -11 5
-14 17 -10 12 5 15 2 10 -10 -7 -19 17 -24 28 -7 8 12 165 9 165 -3 0 -5 19
-6 41 -2 29 5 40 4 35 -4 -5 -7 4 -11 26 -11 18 -1 51 -7 73 -15 22 -8 52 -15
66 -15 15 0 45 -6 67 -14 22 -8 43 -12 45 -9 3 3 12 1 19 -3 7 -5 15 -9 18
-10 3 0 19 -7 35 -14 17 -8 35 -15 40 -16 30 -6 55 -17 55 -25 0 -5 15 -15 33
-23 32 -14 117 -87 117 -100 0 -9 43 -70 53 -74 4 -2 7 -11 7 -21 0 -9 4 -21
8 -26 9 -10 44 -118 62 -195 30 -120 41 -178 65 -345 14 -98 33 -211 41 -250
8 -38 16 -83 19 -100 6 -48 41 -168 63 -216 17 -37 20 -39 16 -14 -11 68 -9
140 3 153 8 8 13 9 13 3 0 -6 10 -11 23 -11 18 0 19 -2 7 -10 -8 -5 -10 -10
-5 -10 6 0 11 -12 12 -26 2 -45 22 -52 22 -8 0 21 4 64 8 94 9 59 6 100 -6
100 -9 0 -41 -66 -41 -85 0 -8 -3 -15 -7 -16 -5 0 -16 -2 -25 -4 -13 -2 -17 5
-16 36 0 21 3 39 7 39 15 0 10 74 -6 93 -13 15 -15 21 -5 24 6 3 12 11 12 18
0 12 21 25 40 25 5 0 22 -11 38 -25 35 -29 39 -49 47 -215 11 -224 23 -365 35
-394 6 -17 13 -98 15 -180 2 -83 7 -159 10 -168 13 -33 -72 -168 -106 -168 -7
0 -9 -13 -5 -37 4 -21 2 -65 -4 -98 -6 -33 -15 -180 -20 -327 -8 -261 -18
-330 -57 -428 -3 -8 -5 -18 -5 -22 1 -4 -5 -26 -14 -49 l-17 -41 -27 32 -27
32 23 25 c12 13 21 32 18 41 -3 9 1 7 7 -5 15 -28 25 -29 32 -3 3 13 0 20 -8
20 -7 0 -15 6 -18 13 -4 9 -7 9 -18 0 -7 -7 -24 -13 -37 -13 -23 0 -24 -2 -18
-44 4 -26 3 -47 -3 -50 -18 -11 -40 -65 -30 -72 6 -3 -4 -19 -22 -35 -27 -24
-30 -31 -19 -44 10 -12 9 -16 -4 -21 -9 -3 -16 -14 -16 -24 0 -11 -5 -22 -11
-26 -6 -3 -17 -22 -25 -40 -14 -34 -39 -45 -46 -22 -8 23 -26 -3 -26 -38 0
-20 -4 -39 -9 -43 -12 -8 -50 -88 -58 -124 -4 -15 -11 -27 -16 -27 -5 0 -9 -7
-9 -15 0 -9 -7 -18 -15 -21 -8 -4 -15 -15 -15 -26 0 -11 -9 -31 -20 -45 -11
-14 -20 -21 -20 -14 0 6 -9 11 -20 11 -11 0 -20 -4 -20 -10 0 -5 8 -10 18 -10
15 -1 15 -2 -3 -12 -21 -13 -22 -13 -74 -25 -19 -5 -36 -15 -39 -23 -3 -13 -2
-13 8 0 10 13 11 13 7 0 -2 -8 -11 -14 -20 -12 -8 1 -18 -2 -22 -8 -5 -8 -11
-8 -21 1 -11 9 -15 8 -20 -5 -3 -9 -12 -16 -20 -16 -8 0 -24 -6 -35 -13 -17
-9 -23 -9 -26 1 -3 6 -12 12 -20 12 -11 0 -13 -3 -5 -13 8 -9 0 -12 -34 -13
-24 -1 -44 3 -44 8 0 6 -7 5 -15 -2 -12 -10 -16 -9 -21 4 -8 20 -24 21 -24 1
0 -8 -9 -15 -20 -15 -11 0 -20 -4 -20 -10 0 -5 7 -10 16 -10 8 0 12 -5 9 -11
-4 -6 -19 -7 -38 -3 -38 8 -96 15 -122 15 -10 0 -26 5 -33 12 -13 10 -14 8 -7
-12 7 -23 6 -24 -26 -16 -19 4 -44 8 -56 7 -13 0 -23 5 -23 10 0 7 -5 7 -12 1
-22 -16 -66 -14 -78 5 -8 12 -13 13 -16 5 -8 -18 -27 -16 -21 2 8 19 -13 31
-24 14 -5 -8 -9 -9 -9 -3 0 7 -7 15 -16 18 -12 4 -15 2 -10 -9 7 -19 -8 -19
-24 0 -7 8 -18 15 -26 15 -7 0 -15 9 -19 19 -3 10 -15 21 -25 24 -11 3 -20 12
-20 21 0 10 -9 16 -22 16 -19 0 -20 2 -8 10 13 9 13 12 -2 24 -10 7 -15 16
-11 20 4 3 -2 12 -12 20 -10 7 -15 18 -11 24 4 7 1 12 -8 12 -9 0 -16 7 -16
15 0 8 -4 15 -9 15 -14 0 -43 68 -39 93 2 14 -2 22 -12 22 -8 0 -17 9 -20 19
-7 26 -27 31 -33 9 -4 -14 -5 -13 -6 5 0 12 -7 22 -13 22 -10 0 -10 2 -1 8 7
4 9 13 4 21 -5 7 -14 11 -20 7 -7 -4 -9 -1 -5 7 3 8 1 18 -5 22 -6 3 -11 15
-11 26 0 11 -4 18 -9 15 -10 -7 -53 28 -50 40 2 5 -6 24 -17 41 -13 23 -24 31
-36 27 -10 -3 -18 0 -18 6 0 7 -7 10 -15 6 -9 -3 -15 0 -15 10 0 8 -5 12 -10
9 -6 -3 -10 3 -10 13 0 11 -16 32 -35 46 -23 18 -35 35 -35 52 0 13 -4 24 -9
24 -5 0 -7 -9 -4 -20 7 -25 -14 -27 -22 -1 -3 10 -14 26 -25 36 -14 13 -17 25
-13 47 4 21 1 33 -13 43 -11 8 -14 15 -8 15 7 0 15 7 18 16 6 16 -57 84 -78
84 -7 0 -18 6 -24 12 -10 10 -17 10 -34 -1 -17 -11 -22 -11 -29 1 -6 9 -9 7
-9 -8 0 -19 6 -21 43 -21 36 0 42 -2 39 -19 -2 -10 -10 -23 -19 -27 -12 -7
-12 -11 -1 -24 12 -15 9 -16 -19 -10 -20 4 -33 2 -33 -4 0 -6 5 -7 10 -4 6 3
10 0 10 -9 0 -8 -4 -16 -9 -18 -6 -1 -7 -22 -4 -45 3 -24 9 -40 14 -37 5 3 5
-5 0 -18 -4 -13 -13 -23 -19 -23 -22 0 -22 -14 -2 -66 11 -30 20 -58 20 -64
-1 -12 -49 105 -83 200 -112 314 -130 358 -143 339 -8 -11 -18 -25 -24 -31
-10 -12 -77 -16 -112 -6 -17 4 -124 149 -165 223 -11 19 -27 68 -36 108 -9 41
-30 102 -45 135 -16 34 -35 78 -42 97 -6 19 -16 44 -21 55 -5 11 -13 38 -18
60 -6 22 -15 58 -22 80 -6 22 -14 66 -16 97 -4 54 -3 60 25 88 17 16 35 30 40
30 14 0 137 -101 138 -114 0 -6 2 -19 2 -28 1 -10 8 -18 16 -18 17 0 40 -64
32 -86 -3 -8 5 -32 19 -52 28 -41 31 -52 12 -52 -16 0 -87 -72 -87 -88 0 -7 6
-12 13 -12 9 0 8 -3 -2 -9 -15 -10 -7 -81 9 -81 5 0 7 -7 3 -16 -4 -12 0 -15
23 -12 19 2 36 14 52 38 13 19 30 34 38 34 9 -1 14 8 14 27 0 35 -22 109 -32
109 -5 0 -8 5 -8 11 0 5 5 7 10 4 12 -8 12 26 0 270 -5 105 -10 217 -11 250
-1 75 -27 254 -39 277 -6 11 -6 19 0 23 15 10 12 28 -4 22 -11 -5 -13 0 -6 24
10 33 4 59 -12 59 -6 0 -8 -9 -5 -20 3 -11 1 -17 -4 -14 -5 3 -9 24 -7 47 1
23 -2 70 -6 105 -7 55 -6 61 8 56 9 -4 16 -1 16 6 0 7 7 10 16 6 13 -5 15 -1
10 19 -4 14 -2 25 3 25 12 0 33 45 52 110 12 42 40 115 58 150 55 107 77 140
111 169 22 19 40 40 40 47 0 8 7 14 16 14 8 0 12 5 9 11 -4 5 7 15 24 22 17 6
31 16 31 21 0 5 11 19 25 32 14 13 25 28 25 34 0 5 4 10 9 10 19 0 101 61 101
75 0 7 14 17 32 20 17 4 41 16 52 27 12 11 31 27 43 35 13 8 20 19 17 24 -3 5
4 9 15 9 24 0 36 16 19 24 -7 3 1 4 17 1 17 -3 25 -2 19 2 -16 11 -30 58 -15
48 7 -4 18 -1 26 5 8 6 19 9 24 5 6 -3 8 0 5 8 -4 11 5 13 45 10 34 -2 51 0
51 8 0 22 36 55 60 55 18 0 29 8 40 31 13 26 18 29 38 22 18 -7 22 -5 20 8 -2
11 7 19 26 24 17 5 34 15 38 24 5 8 13 15 18 15 16 0 11 -22 -7 -36 -16 -11
-15 -13 12 -20 17 -4 40 -14 53 -22 19 -13 22 -13 22 1 0 9 10 24 23 34 12 10
30 30 40 46 l18 27 -800 0 c-694 -1 -799 -3 -794 -16 3 -7 14 -14 25 -14 11 0
22 -8 25 -20 3 -11 9 -17 14 -14 5 3 9 -2 9 -11 0 -9 -4 -14 -9 -11 -16 10
-41 -6 -41 -26 0 -15 -5 -18 -19 -13 -16 5 -18 2 -14 -15 5 -18 2 -21 -18 -19
-13 2 -25 -1 -26 -6 -2 -6 0 -10 5 -10 4 0 16 -6 27 -12 14 -8 16 -15 9 -25
-6 -7 -17 -34 -24 -60 -7 -26 -21 -55 -31 -64 -18 -16 -20 -16 -34 2 -8 10
-15 34 -16 52 -1 17 -3 44 -5 60 -10 93 -11 192 -2 198 5 3 19 -4 30 -16 26
-28 35 -18 11 14 -14 20 -27 25 -61 26 l-42 0 0 -1524z m290 1498 c0 -17 -34
-23 -48 -8 -18 20 -15 23 18 21 16 -1 30 -7 30 -13z m1250 -24 c0 -5 -2 -10
-4 -10 -3 0 -8 5 -11 10 -3 6 -1 10 4 10 6 0 11 -4 11 -10z m1695 -7 c22 -2
43 -10 47 -16 4 -7 13 -12 20 -13 33 -2 79 -18 89 -30 9 -11 6 -16 -12 -23
-21 -8 -22 -10 -7 -16 27 -11 45 -58 44 -111 l-1 -48 -67 -15 c-38 -8 -68 -19
-68 -24 0 -5 7 -6 16 -3 8 3 24 1 35 -4 15 -8 19 -7 19 5 0 10 10 15 29 15 36
0 51 -19 23 -27 -18 -4 -19 -8 -9 -25 10 -16 9 -21 -7 -30 -18 -10 -18 -12 -2
-23 19 -14 11 -49 -10 -41 -10 4 -14 -3 -14 -20 0 -14 4 -22 10 -19 16 10 43
-11 45 -34 2 -25 -8 -27 -26 -5 -16 19 -83 55 -128 69 -19 5 -37 17 -42 25
-24 48 -39 92 -39 117 0 16 -7 39 -16 52 -12 17 -13 26 -5 34 15 15 14 38 -2
31 -7 -2 -21 10 -32 28 -21 34 -47 146 -38 162 3 4 29 5 57 1 28 -4 69 -9 91
-12z m352 -138 c-5 -14 -47 -19 -59 -7 -6 6 -8 17 -5 26 5 12 11 13 37 3 16
-6 29 -16 27 -22z m128 -5 c-3 -5 -11 -10 -16 -10 -6 0 -7 5 -4 10 3 6 11 10
16 10 6 0 7 -4 4 -10z m-191 -26 c9 -3 16 -15 16 -26 0 -13 -5 -18 -14 -15 -8
3 -20 -1 -26 -9 -21 -24 -29 -15 -17 21 11 36 15 39 41 29z m86 -28 c0 -2 -7
-6 -15 -10 -8 -3 -15 -1 -15 4 0 6 7 10 15 10 8 0 15 -2 15 -4z m158 -58 c2
-9 -4 -23 -13 -31 -8 -9 -15 -28 -15 -44 -1 -33 -39 -110 -40 -79 0 34 24 151
35 163 13 15 29 11 33 -9z m112 -38 c0 -74 -12 -112 -41 -128 -19 -12 -27 -24
-26 -42 2 -20 -3 -26 -25 -28 -28 -3 -38 11 -17 23 7 5 5 13 -6 25 -18 20 -15
71 10 153 12 40 14 42 49 39 24 -2 36 1 36 10 0 9 3 9 10 -2 5 -8 10 -31 10
-50z m-350 3 c0 -7 -3 -13 -7 -13 -5 0 -18 -3 -30 -6 -18 -5 -23 -2 -23 14 0
16 6 20 30 20 18 -1 30 -6 30 -15z m-20 -53 c0 -5 -9 -10 -20 -10 -11 0 -20 5
-20 10 0 6 9 10 20 10 11 0 20 -4 20 -10z m75 -30 c0 -13 -5 -25 -11 -27 -13
-4 -26 35 -18 49 10 16 29 2 29 -22z m-85 -45 c0 -8 -4 -15 -10 -15 -5 0 -10
7 -10 15 0 8 5 15 10 15 6 0 10 -7 10 -15z m100 -101 c0 -8 -9 -14 -20 -14
-22 0 -28 26 -7 33 16 6 27 -1 27 -19z m160 -14 c0 -5 -4 -10 -10 -10 -5 0
-10 5 -10 10 0 6 5 10 10 10 6 0 10 -4 10 -10z m-480 -10 c0 -5 -4 -10 -10
-10 -5 0 -10 5 -10 10 0 6 5 10 10 10 6 0 10 -4 10 -10z m255 1 c3 -5 1 -12
-5 -16 -5 -3 -10 1 -10 9 0 18 6 21 15 7z m79 -23 c-15 -51 -24 -68 -34 -68
-13 0 -13 37 0 45 6 3 10 15 10 26 0 11 7 19 16 19 11 0 14 -6 8 -22z m-262
-8 c14 -11 28 -30 31 -42 2 -13 8 -31 12 -42 6 -13 -6 -8 -42 18 -28 20 -55
36 -61 36 -18 0 -22 29 -4 39 25 15 36 13 64 -9z m512 -95 c-7 -18 -8 -18 -14
1 -9 23 -1 39 11 27 6 -6 6 -18 3 -28z m41 -46 c7 -27 -15 -55 -23 -31 -2 7
-11 19 -19 28 -14 13 -14 16 3 29 22 16 30 10 39 -26z m-3795 10 c-7 -11 -14
-18 -17 -15 -3 3 0 12 7 21 18 21 23 19 10 -6z m3297 -22 c23 -34 22 -87 -2
-87 -18 0 -45 56 -45 92 0 37 20 36 47 -5z m153 -2 c0 -8 13 -23 29 -34 41
-29 46 -67 15 -113 l-25 -36 -39 21 c-47 24 -57 44 -33 64 13 11 15 16 5 20
-14 5 -7 68 10 90 12 14 38 6 38 -12z m-3505 -36 c-4 -11 -2 -19 5 -19 6 0 8
-5 4 -11 -4 -8 -9 -7 -15 2 -12 20 -11 62 1 54 6 -4 8 -15 5 -26z m3772 -1
c-3 -8 -6 -5 -6 6 -1 11 2 17 5 13 3 -3 4 -12 1 -19z m-3745 -70 c-7 -7 -12
-8 -12 -2 0 14 12 26 19 19 2 -3 -1 -11 -7 -17z m3295 -20 c-3 -7 -5 -2 -5 12
0 14 2 19 5 13 2 -7 2 -19 0 -25z m338 -38 c3 -5 1 -10 -4 -10 -6 0 -11 5 -11
10 0 6 2 10 4 10 3 0 8 -4 11 -10z m145 -10 c0 -5 -2 -10 -4 -10 -3 0 -8 5
-11 10 -3 6 -1 10 4 10 6 0 11 -4 11 -10z m-322 -13 c18 1 22 -4 21 -31 0 -17
-3 -25 -6 -18 -2 6 -12 12 -21 12 -17 0 -52 28 -52 43 0 5 8 6 18 1 9 -4 27
-7 40 -7z m312 -23 c13 -34 13 -67 0 -59 -6 4 -17 2 -24 -4 -10 -9 -19 -6 -37
9 -21 18 -22 21 -8 32 8 7 18 21 22 31 9 25 36 21 47 -9z m99 -43 c22 -31 26
-41 14 -41 -16 1 -40 26 -47 48 -10 31 9 28 33 -7z m141 -57 c0 -8 -5 -12 -10
-9 -6 4 -8 11 -5 16 9 14 15 11 15 -7z m-450 -31 c0 -13 -3 -13 -15 -3 -8 7
-12 16 -9 21 8 13 24 1 24 -18z m220 -3 c0 -11 -4 -20 -10 -20 -5 0 -10 5 -10
10 0 6 -7 10 -15 10 -8 0 -15 -8 -15 -17 0 -13 -3 -14 -12 -5 -16 16 7 42 38
42 17 0 24 -6 24 -20z m88 11 c9 -5 25 -12 35 -15 9 -3 17 -11 17 -17 0 -16
-51 -2 -75 22 -21 20 -8 26 23 10z m-3791 -30 c-1 -16 -4 -17 -15 -9 -10 9
-11 13 0 19 17 11 17 12 15 -10z m23 -103 c0 -23 -16 -16 -23 11 -3 14 -1 18
9 14 8 -3 14 -14 14 -25z m3645 23 c3 -5 1 -12 -5 -16 -5 -3 -10 1 -10 9 0 18
6 21 15 7z m-251 -17 c3 -9 6 -18 6 -20 0 -9 -22 -3 -36 10 -11 11 -11 16 -1
19 20 9 25 8 31 -9z m326 -19 c0 -8 6 -15 13 -15 14 0 63 -47 56 -54 -11 -11
-58 8 -62 25 -3 10 -11 19 -18 19 -10 0 -10 -3 -1 -12 16 -16 15 -28 -2 -28
-22 0 -35 23 -29 53 6 29 43 40 43 12z m-366 -16 c-6 -11 -24 -2 -24 11 0 5 7
7 15 4 8 -4 12 -10 9 -15z m271 11 c3 -5 1 -10 -4 -10 -6 0 -11 5 -11 10 0 6
2 10 4 10 3 0 8 -4 11 -10z m199 -26 c23 -9 20 -44 -3 -44 -20 0 -35 25 -25
41 6 11 8 11 28 3z m-400 -70 c30 -11 10 -94 -22 -94 -12 0 -27 38 -23 60 6
41 13 46 45 34z m251 -40 c30 -27 28 -42 -3 -25 -13 7 -22 7 -30 -1 -9 -9 -12
-8 -12 4 0 9 -3 23 -6 32 -10 25 19 19 51 -10z m-3702 -14 c3 -11 1 -20 -4
-20 -5 0 -9 2 -9 4 0 2 -3 11 -6 20 -3 9 -2 16 4 16 5 0 12 -9 15 -20z m47
-76 c0 -25 -35 -12 -38 14 -3 21 -1 22 17 12 12 -6 21 -18 21 -26z m3450 -8
c0 -3 -5 -17 -10 -31 -9 -23 -13 -25 -25 -15 -27 22 -16 47 23 49 6 1 12 -1
12 -3z m390 -6 c0 -5 -7 -10 -15 -10 -8 0 -15 5 -15 10 0 6 7 10 15 10 8 0 15
-4 15 -10z m-3825 -20 c4 -6 9 -27 11 -48 l5 -37 -21 37 c-11 21 -20 42 -20
48 0 13 17 13 25 0z m-35 -70 c0 -14 7 -35 15 -46 19 -25 19 -34 0 -34 -8 0
-17 11 -21 25 -3 14 -15 42 -25 62 -27 54 -25 72 6 43 14 -14 25 -35 25 -50z
m3739 43 c22 -9 42 -25 44 -35 3 -10 1 -16 -4 -12 -16 9 -10 -8 7 -20 19 -14
8 -48 -15 -45 -23 3 -52 -11 -45 -22 8 -13 -63 -79 -85 -79 -17 0 -20 6 -17
38 4 36 5 37 45 36 46 -1 46 10 0 20 -25 5 -30 10 -26 26 4 17 2 18 -14 9 -22
-11 -24 -1 -6 32 41 76 50 80 116 52z m201 -22 c0 -5 -6 -12 -12 -14 -8 -4 -4
-8 10 -12 21 -7 31 -25 14 -25 -19 0 -51 32 -46 45 7 16 34 21 34 6z m-653
-143 c-3 -8 -6 -5 -6 6 -1 11 2 17 5 13 3 -3 4 -12 1 -19z m483 -3 c0 -8 -4
-15 -9 -15 -13 0 -22 16 -14 24 11 11 23 6 23 -9z m-450 -59 c0 -22 -11 -46
-21 -46 -10 0 -12 43 -2 53 11 12 23 8 23 -7z m77 -56 c-3 -10 0 -21 7 -23 8
-3 8 -8 -1 -17 -6 -7 -19 -10 -27 -7 -17 7 -22 37 -6 37 6 0 10 7 10 15 0 8 5
15 11 15 6 0 9 -9 6 -20z m338 -29 c-3 -11 -1 -22 5 -26 15 -9 12 -35 -5 -35
-8 0 -15 5 -15 11 0 6 -12 9 -27 7 -38 -4 -38 13 0 40 39 27 50 28 42 3z m61
-86 l5 -73 -29 -7 c-40 -8 -82 3 -82 24 0 24 16 44 29 36 9 -5 9 -10 0 -21
-20 -24 -2 -27 24 -4 14 12 23 28 21 35 -3 7 -1 16 5 20 6 3 11 17 11 31 0 14
-4 22 -10 19 -20 -12 -29 6 -12 25 14 17 17 18 25 4 5 -8 11 -48 13 -89z m90
89 c14 -10 23 -23 20 -31 -3 -8 1 -16 9 -19 27 -11 16 -24 -19 -24 -40 0 -53
14 -35 36 10 12 9 16 -9 20 -11 4 -23 12 -26 20 -8 20 28 18 60 -2z m-206 2
c0 -2 -7 -7 -16 -10 -8 -3 -12 -2 -9 4 6 10 25 14 25 6z m170 -97 c0 -5 -4 -9
-10 -9 -5 0 -10 7 -10 16 0 8 5 12 10 9 6 -3 10 -10 10 -16z m-3850 -4 c7 -9
8 -15 2 -15 -5 0 -12 7 -16 15 -3 8 -4 15 -2 15 2 0 9 -7 16 -15z m3929 -26
c-23 -17 -54 -15 -43 2 3 5 10 6 16 3 7 -5 9 -1 5 9 -7 19 13 28 31 14 11 -9
9 -14 -9 -28z m-480 -55 c3 -16 1 -17 -13 -5 -19 16 -21 34 -3 29 6 -3 14 -13
16 -24z m481 3 c0 -7 -7 -22 -15 -33 -8 -12 -11 -25 -7 -29 4 -4 -3 -1 -15 6
-27 16 -30 56 -5 62 32 9 42 7 42 -6z m-500 -43 c0 -8 -4 -12 -10 -9 -5 3 -10
10 -10 16 0 5 5 9 10 9 6 0 10 -7 10 -16z m356 5 c3 -5 1 -9 -4 -9 -5 0 -7
-12 -4 -26 3 -16 -1 -30 -9 -35 -10 -6 -10 -9 -2 -9 7 0 10 -7 7 -15 -4 -8
-10 -15 -15 -15 -4 0 -6 7 -3 15 4 8 -1 17 -10 21 -10 4 -16 18 -16 37 0 28
-1 29 -13 12 -13 -17 -14 -17 -19 3 -3 12 -1 23 5 25 22 7 77 5 83 -4z m-350
-116 c-10 -10 -19 5 -10 18 6 11 8 11 12 0 2 -7 1 -15 -2 -18z m421 -5 c-3 -8
-6 -5 -6 6 -1 11 2 17 5 13 3 -3 4 -12 1 -19z m-497 -7 c0 -12 -20 -25 -27
-18 -7 7 6 27 18 27 5 0 9 -4 9 -9z m536 -70 c-4 -6 -14 -11 -22 -11 -12 0
-13 4 -3 21 7 14 14 18 21 11 6 -6 7 -15 4 -21z m63 -27 c-6 -8 -17 -14 -23
-13 -7 0 -6 2 2 6 6 2 12 11 12 19 0 9 5 12 10 9 8 -5 7 -11 -1 -21z m8 -69
c6 -14 7 -27 3 -30 -11 -7 -60 15 -60 27 0 13 28 9 34 -4 3 -7 3 -3 0 10 -7
30 8 28 23 -3z m-4090 -81 c-3 -17 -1 -24 8 -20 8 3 12 -8 12 -36 0 -31 -2
-37 -9 -24 -8 13 -13 15 -24 5 -23 -19 -27 13 -7 60 20 47 28 52 20 15z m3944
-47 c-14 -14 -21 -6 -27 28 -3 17 0 31 8 36 17 11 34 -49 19 -64z m86 41 c16
-21 17 -98 1 -98 -18 0 -37 52 -31 84 6 28 15 33 30 14z m-127 -28 c0 -11 -4
-20 -10 -20 -5 0 -10 9 -10 20 0 11 5 20 10 20 6 0 10 -9 10 -20z m-3762 -50
c17 -18 20 -19 32 -5 7 8 16 15 21 15 11 0 0 -27 -28 -69 -28 -41 -30 -63 -5
-55 16 5 16 5 0 -9 -10 -8 -18 -26 -18 -40 0 -14 -7 -28 -16 -31 -20 -8 -18
-10 -31 34 -6 21 -15 34 -23 32 -20 -5 -31 19 -24 51 5 23 3 28 -12 25 -9 -2
-19 3 -21 10 -3 6 2 12 10 12 8 0 17 9 20 21 3 12 10 19 14 16 5 -3 15 -2 23
4 23 14 37 11 58 -11z m3771 -25 c0 -5 -4 -3 -9 5 -5 8 -9 22 -9 30 0 16 17
-16 18 -35z m141 -85 c0 -5 -4 -10 -10 -10 -5 0 -10 5 -10 10 0 6 5 10 10 10
6 0 10 -4 10 -10z m-665 -70 c-3 -5 -11 -10 -16 -10 -6 0 -7 5 -4 10 3 6 11
10 16 10 6 0 7 -4 4 -10z m-3095 -29 c-17 -32 -11 -62 15 -83 14 -11 25 -25
24 -31 0 -9 -2 -9 -6 0 -3 9 -11 7 -26 -7 -26 -25 -38 -25 -44 0 -7 25 -22 26
-25 3 -4 -42 -5 -59 -7 -80 0 -13 -4 -23 -8 -23 -11 1 -44 70 -38 80 3 4 -2
11 -10 14 -10 3 -18 -1 -22 -12 -7 -18 -28 -42 -36 -42 -3 0 3 17 13 37 10 21
16 41 13 45 -8 14 10 8 29 -8 16 -16 18 -16 24 0 3 9 15 16 25 16 20 0 26 24
9 35 -17 10 42 66 78 74 1 1 -2 -8 -8 -18z m-120 -40 c-6 -12 -17 -21 -25 -21
-8 0 -15 -6 -16 -12 0 -10 -2 -10 -6 0 -3 7 8 25 24 41 30 29 41 25 23 -8z
m3523 -181 c-26 -57 -36 -49 -13 10 11 28 21 54 21 58 1 4 3 -1 6 -11 2 -9 -4
-35 -14 -57z m-3443 26 c0 -3 -4 -8 -10 -11 -5 -3 -10 -1 -10 4 0 6 5 11 10
11 6 0 10 -2 10 -4z m105 -96 c-3 -5 -12 -7 -20 -3 -21 7 -19 13 6 13 11 0 18
-4 14 -10z m-30 -20 c4 -7 26 -8 57 -4 37 5 49 4 44 -5 -4 -6 -17 -11 -28 -11
-12 0 -28 -6 -37 -14 -9 -8 -30 -28 -48 -44 -36 -33 -51 -31 -28 5 9 13 11 23
6 23 -5 0 -13 -5 -17 -11 -15 -24 -22 15 -8 43 14 28 47 38 59 18z m3297 -32
c-8 -8 -9 -4 -5 13 4 13 8 18 11 10 2 -7 -1 -18 -6 -23z m-3207 -18 c-28 -12
-37 -12 -30 0 3 6 16 10 28 9 21 0 21 -1 2 -9z m-35 -34 c0 -14 -56 -33 -66
-23 -5 5 42 34 59 36 4 1 7 -5 7 -13z m-328 -26 c-18 -11 -36 -20 -40 -20 -14
1 43 40 58 40 8 0 0 -9 -18 -20z m334 -35 c-11 -8 -25 -15 -30 -15 -6 0 -2 7
8 15 11 8 25 15 30 15 6 0 2 -7 -8 -15z m2751 -137 c-3 -8 -6 -5 -6 6 -1 11 2
17 5 13 3 -3 4 -12 1 -19z m-2777 2 c0 -5 -5 -10 -11 -10 -5 0 -7 5 -4 10 3 6
8 10 11 10 2 0 4 -4 4 -10z m-92 -30 c4 -10 -3 -11 -28 -6 -39 7 -44 11 -36
24 8 14 59 -1 64 -18z m-48 -30 c0 -5 -5 -10 -11 -10 -5 0 -7 5 -4 10 3 6 8
10 11 10 2 0 4 -4 4 -10z m425 -40 c3 -5 2 -10 -4 -10 -5 0 -13 5 -16 10 -3 6
-2 10 4 10 5 0 13 -4 16 -10z m-288 -56 c-3 -3 -12 -4 -19 -1 -8 3 -5 6 6 6
11 1 17 -2 13 -5z m-246 -130 c13 -16 12 -16 -7 -6 -11 6 -27 19 -35 28 -13
16 -12 16 7 6 11 -6 27 -19 35 -28z m34 -82 c-9 -9 -25 11 -25 31 1 21 1 21
15 -3 7 -14 12 -27 10 -28z m255 -61 c0 -5 -8 -11 -17 -15 -10 -3 -24 -9 -31
-12 -8 -4 -10 0 -6 10 5 13 19 21 47 25 4 0 7 -3 7 -8z m70 -1 c0 -6 -11 -10
-25 -10 -14 0 -25 4 -25 8 0 4 11 9 25 10 14 1 25 -3 25 -8z m281 -1 c53 -3
75 -8 72 -16 -9 -22 -38 -24 -125 -6 -88 17 -117 32 -55 27 17 -1 66 -3 108
-5z m407 -14 c-3 -3 -9 2 -12 12 -6 14 -5 15 5 6 7 -7 10 -15 7 -18z m-1064
-1 c3 -8 2 -12 -4 -9 -6 3 -10 10 -10 16 0 14 7 11 14 -7z m586 -54 c21 -19
22 -20 4 -20 -20 0 -44 17 -44 32 0 14 16 9 40 -12z m-430 -230 c-8 -5 -19
-10 -25 -10 -5 0 -3 5 5 10 8 5 20 10 25 10 6 0 3 -5 -5 -10z m50 -94 c0 -3
-4 -8 -10 -11 -5 -3 -10 -1 -10 4 0 6 5 11 10 11 6 0 10 -2 10 -4z"/>
<path d="M3368 4023 c7 -3 16 -2 19 1 4 3 -2 6 -13 5 -11 0 -14 -3 -6 -6z"/>
<path d="M3190 3896 c0 -9 5 -16 10 -16 6 0 10 4 10 9 0 6 -4 13 -10 16 -5 3
-10 -1 -10 -9z"/>
<path d="M3226 3892 c-3 -6 3 -12 15 -15 12 -3 19 -1 16 6 -5 15 -24 20 -31 9z"/>
<path d="M3226 3815 c6 -17 10 -40 13 -67 2 -15 31 -8 31 7 0 8 -4 15 -8 15
-5 0 -16 15 -26 33 -9 17 -14 23 -10 12z"/>
<path d="M3810 3850 c0 -19 3 -21 12 -12 9 9 9 15 0 24 -9 9 -12 7 -12 -12z"/>
<path d="M3790 3811 c0 -6 5 -13 10 -16 6 -3 10 1 10 9 0 9 -4 16 -10 16 -5 0
-10 -4 -10 -9z"/>
<path d="M3800 3750 c0 -5 5 -10 10 -10 6 0 10 5 10 10 0 6 -4 10 -10 10 -5 0
-10 -4 -10 -10z"/>
<path d="M4061 2294 c0 -11 3 -14 6 -6 3 7 2 16 -1 19 -3 4 -6 -2 -5 -13z"/>
<path d="M370 1120 c0 -5 5 -10 10 -10 6 0 10 5 10 10 0 6 -4 10 -10 10 -5 0
-10 -4 -10 -10z"/>
<path d="M3970 4194 c0 -12 3 -14 13 -6 6 5 21 12 32 15 13 3 9 5 -12 6 -24 1
-33 -3 -33 -15z"/>
<path d="M4110 4201 c0 -5 -3 -16 -6 -25 -5 -12 1 -16 23 -16 30 0 73 -35 73
-58 0 -15 -47 -35 -61 -26 -10 6 -25 -24 -15 -33 3 -3 12 0 21 7 16 13 45 7
45 -9 0 -6 -12 -25 -27 -43 -16 -18 -33 -42 -39 -53 -7 -12 -22 -20 -37 -20
-35 -1 -41 -9 -30 -42 12 -37 6 -63 -15 -63 -32 -1 -59 -34 -65 -77 -3 -24 -1
-43 4 -43 5 0 9 3 9 8 0 4 24 33 53 65 50 54 55 57 100 57 26 0 47 -4 47 -10
0 -5 5 -10 10 -10 14 0 13 87 -1 96 -7 4 -8 20 -4 43 4 20 9 87 12 149 l4 112
-28 0 c-20 0 -24 -3 -14 -9 7 -5 10 -14 7 -20 -11 -17 -23 -13 -29 9 -5 20
-37 29 -37 11z"/>
<path d="M4082 4125 c0 -16 2 -22 5 -12 2 9 2 23 0 30 -3 6 -5 -1 -5 -18z"/>
<path d="M3760 4080 c0 -5 7 -10 16 -10 8 0 12 5 9 10 -3 6 -10 10 -16 10 -5
0 -9 -4 -9 -10z"/>
<path d="M3965 3491 c-7 -12 12 -24 25 -16 11 7 4 25 -10 25 -5 0 -11 -4 -15
-9z"/>
<path d="M4115 3430 c3 -5 8 -10 11 -10 2 0 4 5 4 10 0 6 -5 10 -11 10 -5 0
-7 -4 -4 -10z"/>
<path d="M3960 3404 c0 -10 5 -26 10 -34 8 -11 9 -7 4 15 -8 37 -14 45 -14 19z"/>
<path d="M4110 3363 c0 -12 5 -25 10 -28 13 -8 13 15 0 35 -8 12 -10 11 -10
-7z"/>
<path d="M4155 3340 c-3 -6 1 -7 9 -4 18 7 21 14 7 14 -6 0 -13 -4 -16 -10z"/>
<path d="M3998 3323 c7 -3 16 -2 19 1 4 3 -2 6 -13 5 -11 0 -14 -3 -6 -6z"/>
<path d="M2775 3059 c-33 -6 -69 -11 -80 -12 -11 -1 -27 -6 -35 -12 -8 -5 -35
-10 -60 -11 -25 -1 -45 -3 -45 -4 0 -2 -20 -4 -44 -5 -28 -2 -48 -9 -53 -19
-11 -20 -39 -21 -32 -1 5 12 1 12 -25 -1 -18 -9 -43 -17 -58 -19 -15 -1 -36
-16 -50 -34 -20 -25 -28 -29 -39 -20 -10 8 -11 15 -4 24 7 8 7 16 2 19 -10 6
-62 -41 -62 -56 0 -25 -44 -107 -59 -111 -25 -6 -34 -58 -14 -74 15 -11 15
-13 0 -19 -15 -5 -14 -9 6 -26 l22 -20 -22 5 c-15 4 -23 0 -23 -9 0 -8 7 -14
15 -14 18 0 19 -11 3 -29 -7 -8 -8 -11 -2 -8 17 10 45 -27 38 -49 -5 -15 -4
-16 5 -4 16 23 20 9 11 -40 -5 -27 -5 -46 1 -48 5 -2 9 -16 9 -30 l1 -27 20
28 c14 18 25 25 33 19 18 -14 55 -21 62 -11 3 5 14 9 26 9 17 0 19 -2 7 -16
-10 -13 -10 -17 2 -25 12 -8 12 -10 0 -18 -11 -7 -10 -10 6 -15 11 -4 27 -4
36 -1 8 4 29 -1 46 -10 48 -25 206 -15 262 16 24 13 41 29 39 34 -6 12 -89 8
-105 -5 -18 -15 -88 1 -107 24 -12 15 -20 17 -25 10 -6 -9 -11 -8 -20 1 -10
10 -9 14 3 19 9 3 20 3 25 0 6 -3 15 -1 22 4 7 6 26 13 42 15 17 3 -2 4 -42 1
-42 -2 -74 0 -78 6 -4 6 7 10 27 10 30 0 96 13 141 26 13 4 17 0 17 -17 0 -18
3 -20 12 -11 7 7 24 12 39 12 15 0 31 5 35 11 3 6 19 9 35 5 22 -4 29 -2 29
10 0 12 11 14 57 10 31 -2 64 0 72 4 9 4 38 13 66 19 58 14 63 17 47 33 -14
14 -16 54 -2 63 12 7 -5 56 -25 71 -22 16 -9 78 14 69 9 -4 21 -8 28 -9 7 -1
16 -5 19 -9 14 -13 35 -7 62 19 15 15 21 23 13 19 -10 -6 -12 -2 -6 14 4 12 2
21 -4 21 -8 0 -7 7 1 20 10 16 10 24 1 40 -7 10 -10 27 -6 36 5 14 2 16 -19
11 -18 -5 -30 -2 -39 10 -12 15 -11 16 9 11 25 -7 29 4 8 21 -8 7 -25 9 -40 5
-16 -4 -26 -2 -26 5 0 6 7 8 15 5 8 -4 15 -1 15 5 0 6 -16 11 -35 11 -19 0
-35 4 -35 10 0 5 -15 10 -32 9 -18 0 -46 2 -63 4 -16 3 -57 1 -90 -4z m-96
-470 c1 8 4 11 8 8 3 -4 -6 -19 -22 -34 l-28 -28 8 35 c11 50 18 59 26 30 4
-14 7 -19 8 -11z m-314 -199 c3 -5 -1 -10 -10 -10 -9 0 -13 5 -10 10 3 6 8 10
10 10 2 0 7 -4 10 -10z"/>
<path d="M545 3030 c-3 -5 -1 -10 4 -10 6 0 11 5 11 10 0 6 -2 10 -4 10 -3 0
-8 -4 -11 -10z"/>
<path d="M1514 2758 c4 -51 -2 -56 -37 -34 -12 8 -40 16 -62 17 -34 3 -40 1
-37 -15 3 -15 -1 -18 -23 -14 -22 5 -26 2 -22 -13 3 -10 2 -18 -2 -17 -22 4
-111 -17 -115 -27 -2 -7 -23 -16 -45 -20 -22 -4 -45 -13 -52 -21 -6 -8 -22
-14 -34 -14 -12 0 -28 -6 -34 -14 -6 -7 -23 -13 -37 -13 -14 0 -32 -9 -39 -21
-8 -11 -27 -23 -42 -27 -31 -7 -113 -87 -113 -110 0 -7 -4 -17 -10 -20 -6 -3
-7 1 -4 9 3 9 3 16 -1 16 -22 0 -74 -96 -75 -138 0 -12 7 -25 15 -28 12 -5 13
-10 4 -20 -9 -11 -7 -15 5 -20 13 -5 14 -9 5 -21 -9 -10 -9 -17 -1 -25 7 -7
12 -8 12 -4 0 5 7 3 15 -4 8 -7 13 -16 10 -20 -3 -5 0 -12 6 -16 6 -3 14 -2
18 4 4 7 17 9 35 4 22 -6 30 -15 32 -35 1 -15 -2 -29 -7 -33 -19 -11 2 -23 25
-14 13 5 26 6 29 4 3 -3 20 2 38 12 43 22 156 54 191 54 15 0 29 4 32 9 3 5
35 9 71 8 36 0 68 3 72 6 3 4 15 7 25 7 10 0 41 12 69 26 27 15 53 23 57 20
10 -11 -13 -41 -31 -41 -9 0 -26 -9 -38 -19 -57 -48 -92 -61 -188 -66 -69 -4
-96 -9 -99 -19 -4 -11 2 -13 26 -8 19 4 34 2 38 -5 14 -22 241 9 274 38 8 7
28 16 45 20 16 4 44 22 61 41 17 18 39 33 48 33 10 0 16 8 16 21 0 16 5 20 20
16 25 -6 43 16 35 44 -5 14 -4 19 4 15 6 -4 11 -13 11 -20 0 -8 7 -19 16 -26
13 -11 16 -10 21 8 3 12 9 22 14 22 5 0 15 13 23 29 12 22 14 54 10 142 -2 63
-7 129 -10 148 -6 35 -27 65 -38 54 -3 -4 -6 3 -6 15 0 12 -5 22 -11 22 -6 0
-9 9 -6 20 3 12 -1 21 -12 25 -9 3 -23 22 -31 43 l-14 37 -7 -30 -6 -30 -8 33
c-7 29 -25 46 -25 22 0 -5 -9 -10 -20 -10 -11 0 -20 -4 -20 -10 0 -19 -45 -3
-58 21 -11 22 -12 20 -8 -23z m142 -503 c-39 -20 -67 -21 -40 0 10 8 30 14 44
15 25 0 25 0 -4 -15z m-216 -45 c0 -5 -8 -10 -17 -10 -15 0 -16 2 -3 10 19 12
20 12 20 0z m95 0 c3 -5 1 -10 -4 -10 -6 0 -11 5 -11 10 0 6 2 10 4 10 3 0 8
-4 11 -10z m-152 -27 c-7 -2 -19 -2 -25 0 -7 3 -2 5 12 5 14 0 19 -2 13 -5z"/>
<path d="M288 2114 c-8 -7 4 -46 31 -104 11 -25 21 -60 21 -77 0 -18 3 -33 8
-33 4 0 15 -12 24 -27 l16 -26 6 49 c3 27 8 75 12 107 5 46 10 57 24 57 10 0
21 -6 23 -12 3 -8 6 -6 6 5 1 9 -6 17 -14 17 -8 0 -25 11 -39 25 -19 19 -36
25 -69 25 -24 0 -46 -3 -49 -6z"/>
<path d="M2560 1780 c0 -18 47 -100 53 -94 3 3 3 -2 1 -13 -3 -11 8 -33 28
-58 18 -22 40 -53 48 -70 8 -16 21 -38 29 -47 8 -10 11 -18 7 -18 -12 0 25
-56 46 -69 24 -15 44 -5 27 15 -7 9 -8 14 -1 14 6 0 17 -13 26 -30 8 -18 10
-30 4 -30 -6 0 -7 -7 -4 -16 7 -19 -21 -57 -35 -48 -5 3 -12 -2 -15 -10 -3 -9
-15 -16 -26 -16 -21 0 -48 -22 -48 -39 0 -6 -4 -11 -9 -11 -5 0 -43 -4 -83 -9
-40 -6 -120 -12 -178 -15 -83 -5 -111 -10 -132 -26 -15 -11 -34 -20 -42 -20
-8 0 -18 -5 -21 -10 -4 -6 -32 -9 -68 -7 -34 2 -70 -1 -81 -6 -13 -6 -16 -6
-11 3 4 6 -13 1 -36 -11 -24 -12 -46 -21 -49 -20 -3 0 -41 -10 -85 -23 -134
-40 -160 -46 -214 -46 -44 0 -51 3 -51 20 0 23 -36 45 -53 32 -7 -5 -24 -12
-38 -15 -21 -5 -28 -2 -38 19 -13 30 -5 70 16 78 11 4 13 2 9 -9 -3 -8 -9 -22
-13 -31 -4 -12 2 -10 20 7 15 12 27 28 27 35 0 6 10 14 21 17 17 5 20 11 15
31 -3 14 -8 38 -11 54 -5 23 -4 24 5 7 9 -17 10 -17 5 7 -6 34 3 58 24 59 10
0 11 2 4 6 -8 3 -13 23 -13 48 0 36 -3 43 -17 40 -10 -2 -21 -4 -25 -4 -5 -1
-8 -9 -8 -20 0 -12 -7 -18 -17 -17 -11 0 -24 -13 -35 -35 -9 -20 -31 -50 -47
-67 -17 -17 -31 -38 -31 -47 0 -28 -30 -88 -51 -103 -19 -13 -19 -15 -3 -26
13 -10 14 -15 4 -21 -10 -6 -9 -9 1 -16 12 -7 12 -10 1 -18 -11 -6 -10 -11 2
-24 9 -9 19 -30 22 -47 4 -17 11 -33 15 -36 5 -3 6 -10 3 -16 -4 -6 -3 -8 3
-5 6 4 15 -5 21 -19 10 -20 16 -23 30 -15 9 5 39 11 66 14 52 4 71 -7 144 -81
38 -39 39 -44 10 -40 -27 4 -35 -18 -10 -27 11 -3 27 -20 36 -38 15 -31 80
-99 101 -105 6 -2 24 -13 40 -26 55 -41 155 -70 230 -66 58 2 82 -1 102 -11
18 -9 29 -10 48 -1 14 7 39 12 54 12 16 0 34 6 40 14 6 7 25 16 41 20 17 3 30
11 30 18 0 7 16 23 36 36 21 13 34 29 31 37 -4 9 1 11 15 7 14 -3 19 -1 14 6
-4 6 3 21 15 33 13 13 19 28 16 40 -5 17 -3 18 9 8 8 -7 14 -8 12 -3 -4 14 39
84 57 90 8 4 15 11 15 17 0 6 7 19 17 29 9 10 14 20 11 23 -10 10 -40 -8 -48
-30 -5 -12 -25 -30 -45 -39 -20 -10 -38 -23 -41 -31 -8 -19 -121 -72 -172 -80
-23 -4 -40 -10 -37 -14 2 -4 -15 -8 -38 -7 -23 0 -51 -4 -62 -9 -11 -5 -29 -9
-40 -9 -11 -1 -19 -7 -17 -14 1 -8 -6 -11 -20 -7 -43 9 -158 13 -163 4 -7 -11
-35 0 -62 24 -12 11 -28 17 -35 14 -8 -3 -31 8 -53 24 -21 16 -47 29 -56 29
-12 0 -16 5 -13 14 3 8 -3 19 -15 26 -12 6 -21 17 -21 25 0 7 -5 16 -10 18 -6
3 -5 4 2 3 7 -2 21 1 31 6 10 5 17 5 17 0 0 -5 24 -14 53 -20 28 -6 63 -14 76
-18 20 -6 22 -4 17 13 -4 13 -1 27 9 36 8 9 15 18 15 21 0 11 -22 6 -36 -9
-21 -21 -27 -19 -47 15 -22 36 -14 74 18 88 20 9 23 9 18 -3 -9 -25 27 -17 38
9 12 25 57 33 90 15 14 -7 19 -5 24 10 3 10 16 22 28 25 36 10 105 7 113 -5 4
-7 17 0 35 17 25 24 38 28 89 30 33 0 66 7 75 14 9 8 27 10 46 6 22 -4 39 0
59 14 44 32 67 -1 62 -87 -3 -33 -39 -49 -62 -28 -13 12 -20 13 -25 5 -4 -6 3
-21 15 -32 13 -12 20 -28 17 -39 -5 -20 19 -34 29 -17 5 7 2 8 -6 3 -8 -5 -11
-3 -8 6 3 8 12 13 19 11 8 -2 11 0 7 4 -12 12 12 33 30 27 14 -4 15 -3 2 6
-17 11 -12 19 16 24 34 7 54 19 54 33 0 8 10 14 23 14 29 1 47 16 76 62 19 32
26 36 41 28 10 -6 28 -10 40 -10 20 0 22 4 15 36 -4 23 -3 34 4 30 5 -4 12 -2
16 4 4 7 12 7 25 0 29 -15 30 -14 30 44 0 35 5 58 15 66 8 7 15 17 15 23 0 6
9 21 21 33 22 23 19 44 -7 44 -17 0 -17 5 -4 30 7 13 16 17 28 13 13 -5 15 -3
5 7 -10 11 -17 10 -37 -4 -25 -16 -26 -16 -26 8 0 16 -7 27 -20 31 -11 3 -20
13 -20 21 0 8 -6 14 -13 14 -7 0 -20 13 -30 29 -9 15 -31 34 -48 41 -22 9 -29
18 -26 31 3 12 -2 21 -16 25 -11 4 -35 19 -51 35 -17 16 -35 29 -41 29 -5 1
-26 14 -45 30 -36 32 -50 37 -50 20z m277 -486 c-9 -9 -28 6 -21 18 4 6 10 6
17 -1 6 -6 8 -13 4 -17z m26 -53 c-10 -13 -24 20 -17 40 8 23 8 23 14 -6 3
-16 5 -32 3 -34z m-1393 -161 c0 -5 -5 -10 -11 -10 -5 0 -7 5 -4 10 3 6 8 10
11 10 2 0 4 -4 4 -10z m10 -55 c0 -16 -6 -25 -16 -25 -13 0 -14 3 -4 15 6 8 9
19 5 25 -3 5 -1 10 4 10 6 0 11 -11 11 -25z"/>
<path d="M2486 1644 c-5 -12 -15 -15 -39 -11 -31 5 -74 -13 -61 -26 3 -3 -3
-14 -13 -25 -10 -10 -23 -27 -29 -38 -10 -16 -24 -19 -108 -20 -65 -1 -103 -6
-118 -16 -16 -10 -32 -12 -53 -7 -16 5 -62 11 -100 14 -64 5 -73 4 -95 -17
-28 -27 -43 -28 -89 -11 -42 16 -58 5 -39 -28 7 -13 13 -30 13 -38 0 -9 11
-15 29 -16 27 -1 56 -27 56 -51 0 -6 9 -14 21 -17 17 -5 19 -11 14 -40 -4 -22
-3 -37 5 -42 8 -5 11 0 8 16 -2 19 2 24 22 25 13 1 30 -6 37 -15 6 -9 24 -16
40 -16 15 0 27 -5 26 -11 -3 -14 58 -14 77 0 13 9 13 9 2 -6 -17 -21 -6 -27
43 -23 45 3 76 13 87 29 6 8 8 8 8 0 0 -7 11 -9 25 -6 19 3 23 8 15 17 -8 9
-6 15 7 20 10 5 21 7 26 7 4 -1 7 7 7 18 0 12 7 20 18 20 19 0 42 42 42 77 0
17 6 23 21 23 11 0 17 4 14 10 -4 6 1 23 11 38 10 15 17 31 16 36 -2 4 9 23
23 41 14 19 25 38 25 43 0 5 9 17 20 27 11 10 17 22 14 26 -8 14 -21 10 -28
-7z"/>
<path d="M500 1536 c0 -2 8 -10 18 -17 15 -13 16 -12 3 4 -13 16 -21 21 -21
13z"/>
<path d="M540 1521 c0 -6 4 -13 10 -16 6 -3 7 1 4 9 -7 18 -14 21 -14 7z"/>
<path d="M1750 1140 c0 -5 7 -10 16 -10 8 0 12 5 9 10 -3 6 -10 10 -16 10 -5
0 -9 -4 -9 -10z"/>
<path d="M942 1133 c-6 -2 -10 -8 -7 -13 6 -10 55 0 55 11 0 10 -27 11 -48 2z"/>
<path d="M3230 1110 c0 -11 2 -20 4 -20 2 0 6 9 9 20 3 11 1 20 -4 20 -5 0 -9
-9 -9 -20z"/>
<path d="M1245 1110 c3 -5 10 -10 16 -10 5 0 9 5 9 10 0 6 -7 10 -16 10 -8 0
-12 -4 -9 -10z"/>
<path d="M1310 1099 c0 -5 5 -7 10 -4 6 3 10 8 10 11 0 2 -4 4 -10 4 -5 0 -10
-5 -10 -11z"/>
<path d="M3060 1095 c0 -9 6 -12 15 -9 8 4 15 10 15 15 0 5 -7 9 -15 9 -8 0
-15 -7 -15 -15z"/>
<path d="M3251 1084 c0 -11 3 -14 6 -6 3 7 2 16 -1 19 -3 4 -6 -2 -5 -13z"/>
<path d="M3205 1079 c-4 -6 -5 -12 -2 -15 2 -3 7 2 10 11 7 17 1 20 -8 4z"/>
<path d="M906 1062 c-4 -7 -2 -19 5 -28 6 -8 9 -17 6 -20 -3 -4 1 -13 9 -21
21 -22 30 -8 11 20 -8 12 -16 32 -19 42 -2 15 -6 17 -12 7z"/>
<path d="M3040 995 c0 -8 4 -15 10 -15 5 0 7 7 4 15 -4 8 -8 15 -10 15 -2 0
-4 -7 -4 -15z"/>
<path d="M2403 972 c-13 -2 -23 -8 -23 -13 0 -13 37 -11 45 2 9 14 5 16 -22
11z"/>
<path d="M941 954 c0 -11 3 -14 6 -6 3 7 2 16 -1 19 -3 4 -6 -2 -5 -13z"/>
<path d="M3206 937 c3 -10 9 -15 12 -12 3 3 0 11 -7 18 -10 9 -11 8 -5 -6z"/>
<path d="M1980 880 c0 -13 20 -13 40 0 12 8 9 10 -12 10 -16 0 -28 -4 -28 -10z"/>
<path d="M3060 840 c0 -5 5 -10 10 -10 6 0 10 5 10 10 0 6 -4 10 -10 10 -5 0
-10 -4 -10 -10z"/>
<path d="M2165 530 c-3 -5 1 -10 10 -10 9 0 13 5 10 10 -3 6 -8 10 -10 10 -2
0 -7 -4 -10 -10z"/>
<path d="M2780 329 c0 -5 5 -7 10 -4 6 3 10 8 10 11 0 2 -4 4 -10 4 -5 0 -10
-5 -10 -11z"/>
<path d="M690 32 c0 -14 11 -21 26 -15 21 8 17 23 -6 23 -11 0 -20 -4 -20 -8z"/>
</g>
</svg>
